<svg id="Layer_1" data-name="Layer 1" xmlns="http://www.w3.org/2000/svg" viewBox="0 0 100 100">
  <defs>
    <style>
      .cls-1 {
        fill: #ffd100;
      }

      .cls-2 {
        fill: #333;
      }
    </style>
  </defs>
  <title>Artboard 1</title>
  <g>
    <path class="cls-1" d="M83,55.54a9.91,9.91,0,0,1-5,8.66L39,86.72a10,10,0,0,1-15-8.66V33A10,10,0,0,1,34,23a10,10,0,0,1,5,1.35L78,46.88A9.9,9.9,0,0,1,83,55.54Z"/>
    <g>
      <path class="cls-2" d="M31,86.08a14.05,14.05,0,0,1-14-14V27A14,14,0,0,1,38,14.9L77,37.42a14,14,0,0,1,0,24.25L38,84.18A14,14,0,0,1,31,86.08ZM31,17A10,10,0,0,0,21,27v45a10,10,0,0,0,15,8.66L75,58.2a10,10,0,0,0,0-17.32L36,18.36A10,10,0,0,0,31,17Z"/>
      <path class="cls-2" d="M67.87,50.82A6,6,0,0,1,58,54a9.1,9.1,0,0,0-6-2.48H48.62a6,6,0,0,0-5.2,3l-1.64,2.84a9.27,9.27,0,0,0-.9,6.54,6,6,0,1,1-7.57-4.56,9,9,0,0,0,5.16-4.25L40,52.51a6,6,0,0,0,0-6l-1.63-2.82a9.29,9.29,0,0,0-5.22-4,6,6,0,1,1,7.74-4.27A9,9,0,0,0,42,41.95l1.49,2.58a6,6,0,0,0,5.2,3H52A9.15,9.15,0,0,0,58,45.05a6,6,0,0,1,9.85,5.77Z"/>
      <path class="cls-2" d="M67.87,50.82A6,6,0,0,1,58,54a9.1,9.1,0,0,0-6-2.48H48.62a6,6,0,0,0-5.2,3l-1.64,2.84a9.27,9.27,0,0,0-.9,6.54,6,6,0,1,1-7.57-4.56,9,9,0,0,0,5.16-4.25L40,52.51a6,6,0,0,0,0-6l-1.63-2.82a9.29,9.29,0,0,0-5.22-4,6,6,0,1,1,7.74-4.27A9,9,0,0,0,42,41.95l1.49,2.58a6,6,0,0,0,5.2,3H52A9.15,9.15,0,0,0,58,45.05a6,6,0,0,1,9.85,5.77Z"/>
    </g>
  </g>
</svg>
